<svg width="26" height="26" viewBox="0 0 26 26" fill="none" xmlns="http://www.w3.org/2000/svg">
<g id="ri:instagram-line">
<path id="Vector" d="M13.0013 9.75033C12.1393 9.75033 11.3127 10.0927 10.7032 10.7022C10.0937 11.3117 9.7513 12.1384 9.7513 13.0003C9.7513 13.8623 10.0937 14.6889 10.7032 15.2984C11.3127 15.9079 12.1393 16.2503 13.0013 16.2503C13.8633 16.2503 14.6899 15.9079 15.2994 15.2984C15.9089 14.6889 16.2513 13.8623 16.2513 13.0003C16.2513 12.1384 15.9089 11.3117 15.2994 10.7022C14.6899 10.0927 13.8633 9.75033 13.0013 9.75033ZM13.0013 7.58366C14.4379 7.58366 15.8156 8.15434 16.8315 9.17016C17.8473 10.186 18.418 11.5637 18.418 13.0003C18.418 14.4369 17.8473 15.8147 16.8315 16.8305C15.8156 17.8463 14.4379 18.417 13.0013 18.417C11.5647 18.417 10.187 17.8463 9.17114 16.8305C8.15532 15.8147 7.58463 14.4369 7.58463 13.0003C7.58463 11.5637 8.15532 10.186 9.17114 9.17016C10.187 8.15434 11.5647 7.58366 13.0013 7.58366ZM20.043 7.31283C20.043 7.67197 19.9003 8.01641 19.6463 8.27037C19.3924 8.52432 19.0479 8.66699 18.6888 8.66699C18.3297 8.66699 17.9852 8.52432 17.7313 8.27037C17.4773 8.01641 17.3346 7.67197 17.3346 7.31283C17.3346 6.95368 17.4773 6.60924 17.7313 6.35528C17.9852 6.10133 18.3297 5.95866 18.6888 5.95866C19.0479 5.95866 19.3924 6.10133 19.6463 6.35528C19.9003 6.60924 20.043 6.95368 20.043 7.31283ZM13.0013 4.33366C10.3211 4.33366 9.88347 4.34124 8.63655 4.39649C7.78722 4.43658 7.21738 4.55033 6.68872 4.75616C6.2463 4.91859 5.84633 5.17894 5.51872 5.51774C5.17964 5.84534 4.91893 6.24529 4.75605 6.68774C4.55022 7.21858 4.43647 7.78733 4.39747 8.63558C4.34114 9.83157 4.33355 10.2497 4.33355 13.0003C4.33355 15.6816 4.34114 16.1182 4.39639 17.3651C4.43647 18.2133 4.55022 18.7842 4.75497 19.3118C4.93914 19.7831 5.1558 20.1222 5.51547 20.4818C5.88055 20.8458 6.21964 21.0636 6.68547 21.2434C7.22063 21.4503 7.79047 21.5652 8.63547 21.6042C9.83147 21.6605 10.2496 21.667 13.0002 21.667C15.6815 21.667 16.1181 21.6594 17.365 21.6042C18.2121 21.5641 18.782 21.4503 19.3117 21.2456C19.7537 21.0823 20.1535 20.8221 20.4817 20.484C20.8468 20.12 21.0646 19.7809 21.2444 19.314C21.4502 18.781 21.5651 18.2112 21.6041 17.364C21.6604 16.1691 21.6669 15.7498 21.6669 13.0003C21.6669 10.3202 21.6593 9.88249 21.6041 8.63558C21.564 7.78841 21.4491 7.21641 21.2444 6.68774C21.0811 6.24576 20.8209 5.84597 20.4828 5.51774C20.1553 5.17849 19.7554 4.91776 19.3128 4.75508C18.782 4.54924 18.2121 4.43549 17.365 4.39649C16.1701 4.34016 15.753 4.33366 13.0013 4.33366ZM13.0013 2.16699C15.9447 2.16699 16.312 2.17783 17.4679 2.23199C18.6206 2.28616 19.4071 2.46708 20.0971 2.73574C20.8121 3.01091 21.4145 3.38358 22.0168 3.98483C22.5677 4.52638 22.9939 5.18146 23.2659 5.90449C23.5335 6.59457 23.7155 7.38107 23.7696 8.53482C23.8206 9.68966 23.8346 10.0569 23.8346 13.0003C23.8346 15.9437 23.8238 16.311 23.7696 17.4658C23.7155 18.6196 23.5335 19.405 23.2659 20.0962C22.9947 20.8196 22.5683 21.4748 22.0168 22.0158C21.4751 22.5665 20.8201 22.9927 20.0971 23.2649C19.4071 23.5325 18.6206 23.7145 17.4679 23.7687C16.312 23.8196 15.9447 23.8337 13.0013 23.8337C10.0579 23.8337 9.69063 23.8228 8.53472 23.7687C7.38205 23.7145 6.59664 23.5325 5.90547 23.2649C5.18216 22.9935 4.52696 22.5672 3.9858 22.0158C3.43485 21.4743 3.00859 20.8192 2.73672 20.0962C2.46805 19.4061 2.28714 18.6196 2.23297 17.4658C2.18097 16.311 2.16797 15.9437 2.16797 13.0003C2.16797 10.0569 2.1788 9.68966 2.23297 8.53482C2.28714 7.37999 2.46805 6.59566 2.73672 5.90449C3.00781 5.18102 3.43417 4.52576 3.9858 3.98483C4.52711 3.43366 5.18227 3.00737 5.90547 2.73574C6.59555 2.46708 7.38097 2.28616 8.53472 2.23199C9.69063 2.18108 10.0579 2.16699 13.0013 2.16699Z" fill="#777777"/>
</g>
</svg>
